HIERARCHY
ROOT Hips
{
  OFFSET -64.8533 90.6699 -68.7863
  CHANNELS 6 Xposition Yposition Zposition Zrotation Xrotation Yrotation
  JOINT ToSpine
  {
    OFFSET -2.69724 7.43032 -0.144315
    CHANNELS 3 Zrotation Xrotation Yrotation
    JOINT Spine
    {
      OFFSET -0.0310711 10.7595 1.96963
      CHANNELS 3 Zrotation Xrotation Yrotation
      JOINT Spine1
      {
        OFFSET 13.1342 3.43533 0.764692
        CHANNELS 3 Zrotation Xrotation Yrotation
        JOINT Neck
        {
          OFFSET 29.8703 7.82586 -0.130764
          CHANNELS 3 Zrotation Xrotation Yrotation
          JOINT Head
          {
            OFFSET 9.52751 0.295786 -0.907742
            CHANNELS 3 Zrotation Xrotation Yrotation
            End Site
            {
              OFFSET 16.4037 0.713936 2.7358
            }
          }
        }
        JOINT LeftShoulder
        {
          OFFSET 27.5574 4.95586 2.47156
          CHANNELS 3 Zrotation Xrotation Yrotation
          JOINT LeftArm
          {
            OFFSET 1.20734 -0.998971 20.1238
            CHANNELS 3 Zrotation Xrotation Yrotation
            JOINT LeftForeArm
            {
              OFFSET 26.8049 -0.0536703 -0.155908
              CHANNELS 3 Zrotation Xrotation Yrotation
              JOINT LeftHand
              {
                OFFSET 26.6817 0 0.320147
                CHANNELS 3 Zrotation Xrotation Yrotation
                End Site
                {
                  OFFSET 18.6119 0 0.382219
                }
              }
            }
          }
        }
        JOINT RightShoulder
        {
          OFFSET 27.5927 4.71444 -2.65209
          CHANNELS 3 Zrotation Xrotation Yrotation
          JOINT RightArm
          {
            OFFSET 2.83739 -1.17114 -18.7564
            CHANNELS 3 Zrotation Xrotation Yrotation
            JOINT RightForeArm
            {
              OFFSET 28.839 -0.0548439 1.22491
              CHANNELS 3 Zrotation Xrotation Yrotation
              JOINT RightHand
              {
                OFFSET 26.5114 0 -0.101894
                CHANNELS 3 Zrotation Xrotation Yrotation
                End Site
                {
                  OFFSET 18.2168 0 0
                }
              }
            }
          }
        }
      }
    }
  }
  JOINT LeftUpLeg
  {
    OFFSET -4.76168 -1.9167 -10.2353
    CHANNELS 3 Zrotation Xrotation Yrotation
    JOINT LeftLeg
    {
      OFFSET 2.55951 -42.0585 -8.02213
      CHANNELS 3 Zrotation Xrotation Yrotation
      JOINT LeftFoot
      {
        OFFSET 3.16357 -42.5282 -3.95426
        CHANNELS 3 Zrotation Xrotation Yrotation
        JOINT LeftToeBase
        {
          OFFSET 0.346054 -6.02161 12.8035
          CHANNELS 3 Zrotation Xrotation Yrotation
          End Site
          {
            OFFSET 0.134235 -1.35082 5.13018
          }
        }
      }
    }
  }
  JOINT RightUpLeg
  {
    OFFSET -4.94151 -1.41743 10.6446
    CHANNELS 3 Zrotation Xrotation Yrotation
    JOINT RightLeg
    {
      OFFSET -2.56294 -42.0364 -7.94377
      CHANNELS 3 Zrotation Xrotation Yrotation
      JOINT RightFoot
      {
        OFFSET -3.0952 -42.555 -4.02241
        CHANNELS 3 Zrotation Xrotation Yrotation
        JOINT RightToeBase
        {
          OFFSET -0.0828122 -6.13587 12.8035
          CHANNELS 3 Zrotation Xrotation Yrotation
          End Site
          {
            OFFSET -0.131328 -1.35082 5.13018
          }
        }
      }
    }
  }
}
MOTION
Frames:	12
Frame Time:	0.0333333
-252.724 90.658 -247.787 48.2476 -40.7663 -34.6101 -70.1915 0 88.8779 132.997 73.9393 -45.5992 -7.7496 29.4234 0.469858 -163.415 22.4325 -176.787 -163.99 62.5437 -169.225 0.94165 -10.727 -29.4538 -73.1014 58.1995 -50.1368 18.8061 2.00307 -83.4872 0.420957 0.000575239 0.35866 -1.82154 7.58505 38.3529 -74.5081 -43.1867 86.6366 20.7204 1.79119 94.4797 0.58676 0.0003311 0.0646653 1.26823 4.38224 97.3509 -82.7055 85.4258 72.0484 -4.16041 7.97144 1.35009 2.50648 -8.32167 11.8288 -53.3629 1.9893 90.4097 2.4597 44.9929 2.21491 2.04938 -13.8875 1.21883 2.6504 -21.0801 1.01799 
-243.095 92.9282 -238.935 47.9921 -39.7279 -34.844 -70.1915 0 88.8779 122.299 77.506 -34.823 -5.72339 30.0172 0.721342 -161.362 23.8031 -176.143 -166.685 63.8775 -166.401 0.983405 -10.5207 -28.5873 -72.9459 61.4441 -46.0114 17.5374 1.35986 -85.0441 0.420957 0.000575239 0.35866 -1.69671 7.44949 37.1363 -74.4876 -44.4016 85.7112 24.7927 6.06174 102.598 0.58676 0.0003311 0.0646653 0.0693965 2.13139 96.7897 -9.63148 68.8215 -2.77592 -10.7331 13.8027 3.6492 5.57389 -13.0808 9.41789 -62.7244 -2.20976 85.3928 1.56856 35.3305 9.07211 0.551744 9.59428 -0.70405 5.29884 -30.7162 11.1498 
-233.432 95.3936 -229.718 47.9685 -38.6516 -33.1453 -70.1915 0 88.8779 102.867 79.6512 -13.3606 -1.83381 30.1265 -0.620774 -160.187 24.6929 -177.401 -167.043 64.6668 -165.826 0.871025 -11.2488 -26.5707 -73.5801 64.9879 -42.8549 16.6049 0.726306 -86.8926 0.420957 0.000575239 0.35866 -1.55106 7.41822 35.2564 -72.86 -46.6204 87.0071 26.7767 10.8111 110.084 0.58676 0.0003311 0.0646653 -4.09447 -0.135139 94.4556 -4.15319 47.0064 -14.0884 -11.7513 15.7073 4.24435 3.37751 -9.39035 9.75363 -70.5903 -2.84114 78.2875 -1.04657 28.4292 24.968 6.37576 21.0702 -3.44046 2.17317 -13.0838 -12.102 
-224.604 96.5064 -220.983 46.5453 -36.5087 -31.6325 -70.1915 0 88.8779 72.1199 78.7699 19.4303 1.57956 29.4293 -1.84722 -157.535 24.855 179.418 -163.604 64.575 -168.589 0.892729 -11.2182 -24.7989 -75.2657 68.2046 -38.9048 16.9316 0.216341 -88.5943 0.420957 0.000575239 0.35866 -1.50733 7.36402 34.823 -71.8119 -47.5621 86.5471 26.171 12.5056 113.46 0.58676 0.0003311 0.0646653 -6.09902 -1.13913 93.2923 -2.72248 31.055 -14.3365 -13.0172 15.112 4.47402 4.89094 -11.1293 3.81814 -71.8189 0.349184 83.7898 0.422038 31.5332 11.9242 1.78918 19.5111 -1.86837 2.12152 -11.5224 -11.7003 
-216.393 96.8542 -212.633 46.7729 -36.7532 -30.1362 -70.1915 0 88.8779 61.8525 77.6606 29.5999 3.88368 29.0273 -1.53877 -156.013 24.5553 176.383 -160.367 64.0738 -172.053 0.96719 -10.7134 -24.7354 -77.5886 69.0234 -36.5215 17.2134 0.0222878 -89.2235 0.420957 0.000575239 0.35866 -1.47264 6.95955 35.6242 -71.5874 -46.9755 84.6113 24.8045 12.2377 114.312 0.58676 0.0003311 0.0646653 -8.54582 -0.150843 94.9145 -2.92319 27.5563 -9.23641 -13.4897 13.9969 4.38481 5.61835 -12.7743 5.93285 -70.2237 2.21254 87.2771 2.20097 44.0944 1.33144 -1.00787 17.0868 -0.87553 2.01289 -10.2904 -10.5528 
-208.099 96.2017 -204.396 50.8913 -38.403 -27.05 -70.1915 0 88.8779 82.1855 78.339 7.76047 1.58288 28.4103 -0.525655 -152.509 23.8634 173.652 -157.074 63.2871 -172.967 0.987229 -10.55 -25.8793 -78.1182 67.3739 -37.9404 16.7694 0.311833 -88.2727 0.420957 0.000575239 0.35866 -1.65439 6.80304 38.8235 -71.6069 -45.4329 81.1422 23.0269 9.88955 111.681 0.58676 0.0003311 0.0646653 -13.8073 0.579698 100.245 -2.49886 34.1529 -10.108 -10.3737 10.297 2.97786 6.27019 -14.0318 6.76877 -68.4312 2.23661 86.9266 3.9988 61.7469 -5.40022 3.0544 17.6755 -2.05836 1.82215 -2.98951 -10.7776 
-200.029 94.2611 -196.412 55.658 -38.1866 -23.2008 -70.1915 0 88.8779 102.307 76.5483 -14.6273 -1.43286 26.7327 1.11964 -149.141 23.0142 171.778 -155.392 62.5771 -172.07 0.92974 -10.8623 -27.2623 -77.7796 64.6594 -41.4943 15.3131 0.557793 -87.2839 0.420957 0.000575239 0.35866 -1.79823 6.60783 41.7194 -76.9696 -43.5823 72.8077 29.7929 9.61006 105.97 0.58676 0.0003311 0.0646653 -19.689 -1.18873 100.681 -3.68401 42.9698 -14.6028 -10.4704 5.73229 2.23677 6.14298 -14.0334 9.32602 -63.6562 1.09588 83.8927 17.6496 81.3838 -23.2568 0.426854 17.1721 -1.2782 1.52192 3.7944 -10.1976 
-192.574 92.6783 -188.768 56.7101 -37.7934 -23.389 -70.1915 0 88.8779 103.184 74.9399 -18.6965 -1.72297 25.576 1.21046 -147.438 21.7888 170.395 -154.598 61.5784 -170.561 0.773897 -11.6509 -28.9096 -79.3 60.6446 -44.0242 15.5951 0.583617 -87.2289 0.420957 0.000575239 0.35866 -1.88451 6.19367 44.9095 -73.8085 -43.0736 71.1895 22.195 5.06507 101.929 0.58676 0.0003311 0.0646653 -24.0859 -2.76551 101.623 -5.24263 50.6503 -18.8251 1.45589 -4.42021 -0.568299 1.94141 -7.03339 10.2532 -52.53 0.568561 84.2311 162.834 77.8945 -171.346 0.212501 14.6366 -1.02255 1.90516 4.89903 -12.2623 
-184.437 90.7001 -181.617 61.1805 -36.0913 -18.4322 -70.1915 0 88.8779 110.09 70.319 -24.1328 -0.00570328 22.2148 -1.26309 -149.683 20.5596 170.443 -153.526 60.1402 -171.923 0.612915 -12.2821 -31.1894 -79.9996 56.0091 -49.6983 16.7751 0.544957 -87.5086 0.420957 0.000575239 0.35866 -1.96411 6.2508 45.8486 -69.2957 -43.4262 72.1638 21.0014 1.40484 93.4164 0.58676 0.0003311 0.0646653 -30.4674 -6.71923 96.073 -6.30373 57.9417 -12.4297 5.92457 -15.2895 -1.27352 1.47563 -6.81345 12.6944 -42.7865 -0.696255 80.8525 170.412 63.4496 179.046 -9.19115 19.2643 1.37848 1.27389 -9.72758 -1.2764 
-177.854 89.8155 -175.214 59.0414 -33.437 -20.2796 -70.1915 0 88.8779 106.074 68.4743 -22.5881 -0.22457 19.5448 -0.358476 -155.346 19.7715 170.578 -155.545 59.148 -173.074 0.210179 -13.9708 -32.6995 -77.3241 50.0515 -61.0167 17.4857 0.525079 -87.6544 0.420957 0.000575239 0.35866 -2.03577 6.3535 46.421 -70.5654 -43.5989 67.8209 19.9382 -1.35595 86.0727 0.58676 0.0003311 0.0646653 -33.7984 -9.49062 93.5742 -6.78336 59.1676 -13.0725 5.93701 -19.3798 -1.39065 3.74392 -11.0726 16.6897 -22.7698 -2.85962 81.9592 171.63 53.7651 178.559 -10.0771 20.941 1.65403 1.51961 -12.3707 -0.286233 
-170.684 89.9201 -167.386 56.064 -33.6912 -22.17 -70.1915 0 88.8779 103.99 68.1867 -22.5391 -2.21198 18.3062 2.32971 -155.611 18.9199 169.341 -153.779 58.0709 -175.036 0.226377 -14.1415 -31.2345 -77.2007 47.7129 -67.8757 17.8287 -0.25407 -90.0937 0.420957 0.000575239 0.35866 -2.16388 6.41313 48.0199 -70.1686 -44.0344 61.5313 18.4529 -2.67322 81.876 0.58676 0.0003311 0.0646653 -39.7705 -7.4143 93.7345 -6.78836 57.8286 -16.53 4.65974 -19.3062 -1.44355 6.40513 -15.1564 19.6115 -5.90691 0.0113419 83.8773 171.72 54.7949 177.483 -8.34357 18.2426 1.13543 1.19456 -9.62982 -0.414595 
-161.382 92.2373 -158.935 55.5018 -33.6172 -20.9613 -70.1915 0 88.8779 102.76 66.1897 -18.8007 -2.61708 16.1271 2.16387 -154.973 17.28 170.345 -153.848 56.4068 -174.912 0.611991 -12.5261 -28.9056 -79.25 48.7345 -69.8395 19.0967 -2.19782 -95.5899 0.420957 0.000575239 0.35866 -2.07568 6.31617 47.2052 -66.8671 -46.0583 57.874 16.2635 -3.01167 79.6447 0.58676 0.0003311 0.0646653 -51.7413 -5.52391 91.7067 -4.50352 47.9333 -15.6885 1.5039 -11.9963 -1.07748 8.53822 -18.0327 9.98256 0.722332 1.66606 84.4416 167.864 65.8828 -169.949 -11.0243 17.5796 1.88585 2.23264 -13.7915 -13.2453 
